<mxfile host="Electron" agent="Mozilla/5.0 (Windows NT 10.0; Win64; x64) AppleWebKit/537.36 (KHTML, like Gecko) draw.io/26.0.9 Chrome/128.0.6613.186 Electron/32.2.5 Safari/537.36" version="26.0.9">
  <diagram name="PÃ¡gina-1" id="F_G8QILxi_su2IGF-D6Q">
    <mxGraphModel dx="1500" dy="1714" grid="1" gridSize="10" guides="1" tooltips="1" connect="1" arrows="1" fold="1" page="1" pageScale="1" pageWidth="1169" pageHeight="827" math="0" shadow="0">
      <root>
        <mxCell id="0" />
        <mxCell id="1" parent="0" />
        <mxCell id="mTICrj34jhNMvIbCaC76-5" value="&lt;b&gt;User&lt;/b&gt;" style="swimlane;fontStyle=0;childLayout=stackLayout;horizontal=1;startSize=26;fillColor=#1ba1e2;horizontalStack=0;resizeParent=1;resizeParentMax=0;resizeLast=0;collapsible=1;marginBottom=0;whiteSpace=wrap;html=1;strokeColor=#006EAF;swimlaneFillColor=default;fontColor=#ffffff;" parent="1" vertex="1">
          <mxGeometry x="100" y="234" width="140" height="130" as="geometry" />
        </mxCell>
        <mxCell id="mTICrj34jhNMvIbCaC76-6" value="- &lt;b&gt;Id&lt;/b&gt;: int" style="text;strokeColor=none;fillColor=none;align=left;verticalAlign=top;spacingLeft=4;spacingRight=4;overflow=hidden;rotatable=0;points=[[0,0.5],[1,0.5]];portConstraint=eastwest;whiteSpace=wrap;html=1;" parent="mTICrj34jhNMvIbCaC76-5" vertex="1">
          <mxGeometry y="26" width="140" height="26" as="geometry" />
        </mxCell>
        <mxCell id="mTICrj34jhNMvIbCaC76-23" value="- &lt;b&gt;Name&lt;/b&gt;: text" style="text;strokeColor=none;fillColor=none;align=left;verticalAlign=top;spacingLeft=4;spacingRight=4;overflow=hidden;rotatable=0;points=[[0,0.5],[1,0.5]];portConstraint=eastwest;whiteSpace=wrap;html=1;" parent="mTICrj34jhNMvIbCaC76-5" vertex="1">
          <mxGeometry y="52" width="140" height="26" as="geometry" />
        </mxCell>
        <mxCell id="mTICrj34jhNMvIbCaC76-21" value="- &lt;b&gt;Email&lt;/b&gt;: text" style="text;strokeColor=none;fillColor=none;align=left;verticalAlign=top;spacingLeft=4;spacingRight=4;overflow=hidden;rotatable=0;points=[[0,0.5],[1,0.5]];portConstraint=eastwest;whiteSpace=wrap;html=1;" parent="mTICrj34jhNMvIbCaC76-5" vertex="1">
          <mxGeometry y="78" width="140" height="26" as="geometry" />
        </mxCell>
        <mxCell id="mTICrj34jhNMvIbCaC76-22" value="- &lt;b&gt;Role&lt;/b&gt;: text" style="text;strokeColor=none;fillColor=none;align=left;verticalAlign=top;spacingLeft=4;spacingRight=4;overflow=hidden;rotatable=0;points=[[0,0.5],[1,0.5]];portConstraint=eastwest;whiteSpace=wrap;html=1;" parent="mTICrj34jhNMvIbCaC76-5" vertex="1">
          <mxGeometry y="104" width="140" height="26" as="geometry" />
        </mxCell>
        <mxCell id="mTICrj34jhNMvIbCaC76-24" value="&lt;b&gt;TicketHistory&lt;/b&gt;" style="swimlane;fontStyle=0;childLayout=stackLayout;horizontal=1;startSize=26;fillColor=#1ba1e2;horizontalStack=0;resizeParent=1;resizeParentMax=0;resizeLast=0;collapsible=1;marginBottom=0;whiteSpace=wrap;html=1;strokeColor=#006EAF;swimlaneFillColor=default;fontColor=#ffffff;" parent="1" vertex="1">
          <mxGeometry x="90" y="430" width="160" height="104" as="geometry" />
        </mxCell>
        <mxCell id="mTICrj34jhNMvIbCaC76-25" value="- &lt;b&gt;Id&lt;/b&gt;: int" style="text;strokeColor=none;fillColor=none;align=left;verticalAlign=top;spacingLeft=4;spacingRight=4;overflow=hidden;rotatable=0;points=[[0,0.5],[1,0.5]];portConstraint=eastwest;whiteSpace=wrap;html=1;" parent="mTICrj34jhNMvIbCaC76-24" vertex="1">
          <mxGeometry y="26" width="160" height="26" as="geometry" />
        </mxCell>
        <mxCell id="mTICrj34jhNMvIbCaC76-27" value="- &lt;b&gt;ChangedAt&lt;/b&gt;: timestamp" style="text;strokeColor=none;fillColor=none;align=left;verticalAlign=top;spacingLeft=4;spacingRight=4;overflow=hidden;rotatable=0;points=[[0,0.5],[1,0.5]];portConstraint=eastwest;whiteSpace=wrap;html=1;" parent="mTICrj34jhNMvIbCaC76-24" vertex="1">
          <mxGeometry y="52" width="160" height="26" as="geometry" />
        </mxCell>
        <mxCell id="mTICrj34jhNMvIbCaC76-28" value="- &lt;b&gt;ChangeDescription&lt;/b&gt;: text" style="text;strokeColor=none;fillColor=none;align=left;verticalAlign=top;spacingLeft=4;spacingRight=4;overflow=hidden;rotatable=0;points=[[0,0.5],[1,0.5]];portConstraint=eastwest;whiteSpace=wrap;html=1;" parent="mTICrj34jhNMvIbCaC76-24" vertex="1">
          <mxGeometry y="78" width="160" height="26" as="geometry" />
        </mxCell>
        <mxCell id="mTICrj34jhNMvIbCaC76-29" value="&lt;b&gt;Priority&lt;/b&gt;" style="swimlane;fontStyle=0;childLayout=stackLayout;horizontal=1;startSize=26;fillColor=#a20025;horizontalStack=0;resizeParent=1;resizeParentMax=0;resizeLast=0;collapsible=1;marginBottom=0;whiteSpace=wrap;html=1;strokeColor=#6F0000;swimlaneFillColor=default;fontColor=#ffffff;" parent="1" vertex="1">
          <mxGeometry x="240" y="710" width="140" height="78" as="geometry" />
        </mxCell>
        <mxCell id="mTICrj34jhNMvIbCaC76-30" value="- &lt;b&gt;Id&lt;/b&gt;: int" style="text;strokeColor=none;fillColor=none;align=left;verticalAlign=top;spacingLeft=4;spacingRight=4;overflow=hidden;rotatable=0;points=[[0,0.5],[1,0.5]];portConstraint=eastwest;whiteSpace=wrap;html=1;" parent="mTICrj34jhNMvIbCaC76-29" vertex="1">
          <mxGeometry y="26" width="140" height="26" as="geometry" />
        </mxCell>
        <mxCell id="mTICrj34jhNMvIbCaC76-31" value="- &lt;b&gt;Level&lt;/b&gt;: text" style="text;strokeColor=none;fillColor=none;align=left;verticalAlign=top;spacingLeft=4;spacingRight=4;overflow=hidden;rotatable=0;points=[[0,0.5],[1,0.5]];portConstraint=eastwest;whiteSpace=wrap;html=1;" parent="mTICrj34jhNMvIbCaC76-29" vertex="1">
          <mxGeometry y="52" width="140" height="26" as="geometry" />
        </mxCell>
        <mxCell id="mTICrj34jhNMvIbCaC76-39" value="&lt;b&gt;Category&lt;/b&gt;" style="swimlane;fontStyle=0;childLayout=stackLayout;horizontal=1;startSize=26;fillColor=#a20025;horizontalStack=0;resizeParent=1;resizeParentMax=0;resizeLast=0;collapsible=1;marginBottom=0;whiteSpace=wrap;html=1;strokeColor=#6F0000;swimlaneFillColor=default;fontColor=#ffffff;" parent="1" vertex="1">
          <mxGeometry x="721.5" y="710" width="140" height="78" as="geometry" />
        </mxCell>
        <mxCell id="mTICrj34jhNMvIbCaC76-40" value="- &lt;b&gt;Id&lt;/b&gt;: int" style="text;strokeColor=none;fillColor=none;align=left;verticalAlign=top;spacingLeft=4;spacingRight=4;overflow=hidden;rotatable=0;points=[[0,0.5],[1,0.5]];portConstraint=eastwest;whiteSpace=wrap;html=1;" parent="mTICrj34jhNMvIbCaC76-39" vertex="1">
          <mxGeometry y="26" width="140" height="26" as="geometry" />
        </mxCell>
        <mxCell id="mTICrj34jhNMvIbCaC76-41" value="- &lt;b&gt;Name&lt;/b&gt;: text" style="text;strokeColor=none;fillColor=none;align=left;verticalAlign=top;spacingLeft=4;spacingRight=4;overflow=hidden;rotatable=0;points=[[0,0.5],[1,0.5]];portConstraint=eastwest;whiteSpace=wrap;html=1;" parent="mTICrj34jhNMvIbCaC76-39" vertex="1">
          <mxGeometry y="52" width="140" height="26" as="geometry" />
        </mxCell>
        <mxCell id="mTICrj34jhNMvIbCaC76-48" value="- &lt;b&gt;CreatedBy&lt;/b&gt;" style="text;strokeColor=none;fillColor=none;align=left;verticalAlign=top;spacingLeft=4;spacingRight=4;overflow=hidden;rotatable=0;points=[[0,0.5],[1,0.5]];portConstraint=eastwest;whiteSpace=wrap;html=1;" parent="1" vertex="1">
          <mxGeometry x="240" y="351" width="85" height="26" as="geometry" />
        </mxCell>
        <mxCell id="mTICrj34jhNMvIbCaC76-49" value="- &lt;b&gt;AssignedTo&lt;/b&gt;" style="text;strokeColor=none;fillColor=none;align=left;verticalAlign=top;spacingLeft=4;spacingRight=4;overflow=hidden;rotatable=0;points=[[0,0.5],[1,0.5]];portConstraint=eastwest;whiteSpace=wrap;html=1;" parent="1" vertex="1">
          <mxGeometry x="255" y="250" width="90" height="26" as="geometry" />
        </mxCell>
        <mxCell id="mTICrj34jhNMvIbCaC76-38" value="- &lt;b&gt;Prority&lt;/b&gt;" style="text;strokeColor=none;fillColor=none;align=left;verticalAlign=top;spacingLeft=4;spacingRight=4;overflow=hidden;rotatable=0;points=[[0,0.5],[1,0.5]];portConstraint=eastwest;whiteSpace=wrap;html=1;" parent="1" vertex="1">
          <mxGeometry x="270" y="678" width="60" height="26" as="geometry" />
        </mxCell>
        <mxCell id="mTICrj34jhNMvIbCaC76-46" value="- &lt;b&gt;Category&lt;/b&gt;" style="text;strokeColor=none;fillColor=none;align=left;verticalAlign=top;spacingLeft=4;spacingRight=4;overflow=hidden;rotatable=0;points=[[0,0.5],[1,0.5]];portConstraint=eastwest;whiteSpace=wrap;html=1;" parent="1" vertex="1">
          <mxGeometry x="700" y="684" width="70" height="26" as="geometry" />
        </mxCell>
        <mxCell id="mTICrj34jhNMvIbCaC76-52" value="- &lt;b&gt;Ticket&lt;/b&gt;" style="text;strokeColor=none;fillColor=none;align=left;verticalAlign=top;spacingLeft=4;spacingRight=4;overflow=hidden;rotatable=0;points=[[0,0.5],[1,0.5]];portConstraint=eastwest;whiteSpace=wrap;html=1;" parent="1" vertex="1">
          <mxGeometry x="390" y="440" width="60" height="26" as="geometry" />
        </mxCell>
        <mxCell id="mTICrj34jhNMvIbCaC76-53" value="- &lt;b&gt;ChangedBy&lt;/b&gt;" style="text;strokeColor=none;fillColor=none;align=left;verticalAlign=top;spacingLeft=4;spacingRight=4;overflow=hidden;rotatable=0;points=[[0,0.5],[1,0.5]];portConstraint=eastwest;whiteSpace=wrap;html=1;" parent="1" vertex="1">
          <mxGeometry x="70" y="364" width="90" height="26" as="geometry" />
        </mxCell>
        <mxCell id="2b6GmqSEgxPgAT3i0t5q-1" value="&lt;b&gt;Group&lt;/b&gt;" style="swimlane;fontStyle=0;childLayout=stackLayout;horizontal=1;startSize=26;fillColor=#1ba1e2;horizontalStack=0;resizeParent=1;resizeParentMax=0;resizeLast=0;collapsible=1;marginBottom=0;whiteSpace=wrap;html=1;strokeColor=#006EAF;swimlaneFillColor=default;fontColor=#ffffff;" parent="1" vertex="1">
          <mxGeometry x="100" y="600" width="140" height="78" as="geometry" />
        </mxCell>
        <mxCell id="2b6GmqSEgxPgAT3i0t5q-2" value="- &lt;b&gt;Id&lt;/b&gt;: int" style="text;align=left;verticalAlign=top;spacingLeft=4;spacingRight=4;overflow=hidden;rotatable=0;points=[[0,0.5],[1,0.5]];portConstraint=eastwest;whiteSpace=wrap;html=1;" parent="2b6GmqSEgxPgAT3i0t5q-1" vertex="1">
          <mxGeometry y="26" width="140" height="26" as="geometry" />
        </mxCell>
        <mxCell id="2b6GmqSEgxPgAT3i0t5q-3" value="- &lt;b&gt;Name&lt;/b&gt;: text" style="text;strokeColor=none;fillColor=none;align=left;verticalAlign=top;spacingLeft=4;spacingRight=4;overflow=hidden;rotatable=0;points=[[0,0.5],[1,0.5]];portConstraint=eastwest;whiteSpace=wrap;html=1;" parent="2b6GmqSEgxPgAT3i0t5q-1" vertex="1">
          <mxGeometry y="52" width="140" height="26" as="geometry" />
        </mxCell>
        <mxCell id="2b6GmqSEgxPgAT3i0t5q-7" value="- &lt;b&gt;Group&lt;/b&gt;" style="text;strokeColor=none;fillColor=none;align=left;verticalAlign=top;spacingLeft=4;spacingRight=4;overflow=hidden;rotatable=0;points=[[0,0.5],[1,0.5]];portConstraint=eastwest;whiteSpace=wrap;html=1;" parent="1" vertex="1">
          <mxGeometry x="250" y="626" width="60" height="26" as="geometry" />
        </mxCell>
        <mxCell id="2b6GmqSEgxPgAT3i0t5q-9" value="- &lt;b&gt;Group&lt;/b&gt;" style="text;strokeColor=none;fillColor=none;align=left;verticalAlign=top;spacingLeft=4;spacingRight=4;overflow=hidden;rotatable=0;points=[[0,0.5],[1,0.5]];portConstraint=eastwest;whiteSpace=wrap;html=1;" parent="1" vertex="1">
          <mxGeometry x="40" y="640" width="60" height="26" as="geometry" />
        </mxCell>
        <mxCell id="2b6GmqSEgxPgAT3i0t5q-10" value="&lt;b&gt;1&lt;/b&gt;" style="text;strokeColor=none;fillColor=none;align=left;verticalAlign=top;spacingLeft=4;spacingRight=4;overflow=hidden;rotatable=0;points=[[0,0.5],[1,0.5]];portConstraint=eastwest;whiteSpace=wrap;html=1;" parent="1" vertex="1">
          <mxGeometry x="260" y="312" width="20" height="26" as="geometry" />
        </mxCell>
        <mxCell id="2b6GmqSEgxPgAT3i0t5q-11" value="&lt;b&gt;1&lt;/b&gt;" style="text;strokeColor=none;fillColor=none;align=left;verticalAlign=top;spacingLeft=4;spacingRight=4;overflow=hidden;rotatable=0;points=[[0,0.5],[1,0.5]];portConstraint=eastwest;whiteSpace=wrap;html=1;" parent="1" vertex="1">
          <mxGeometry x="50" y="360" width="20" height="26" as="geometry" />
        </mxCell>
        <mxCell id="2b6GmqSEgxPgAT3i0t5q-12" value="&lt;b&gt;1&lt;/b&gt;" style="text;strokeColor=none;fillColor=none;align=left;verticalAlign=top;spacingLeft=4;spacingRight=4;overflow=hidden;rotatable=0;points=[[0,0.5],[1,0.5]];portConstraint=eastwest;whiteSpace=wrap;html=1;" parent="1" vertex="1">
          <mxGeometry x="250" y="286" width="20" height="26" as="geometry" />
        </mxCell>
        <mxCell id="2b6GmqSEgxPgAT3i0t5q-13" value="&lt;b&gt;1&lt;/b&gt;" style="text;strokeColor=none;fillColor=none;align=left;verticalAlign=top;spacingLeft=4;spacingRight=4;overflow=hidden;rotatable=0;points=[[0,0.5],[1,0.5]];portConstraint=eastwest;whiteSpace=wrap;html=1;" parent="1" vertex="1">
          <mxGeometry x="410" y="469" width="20" height="26" as="geometry" />
        </mxCell>
        <mxCell id="2b6GmqSEgxPgAT3i0t5q-14" value="&lt;b&gt;1&lt;/b&gt;" style="text;strokeColor=none;fillColor=none;align=left;verticalAlign=top;spacingLeft=4;spacingRight=4;overflow=hidden;rotatable=0;points=[[0,0.5],[1,0.5]];portConstraint=eastwest;whiteSpace=wrap;html=1;" parent="1" vertex="1">
          <mxGeometry x="250" y="600" width="20" height="26" as="geometry" />
        </mxCell>
        <mxCell id="2b6GmqSEgxPgAT3i0t5q-15" value="&lt;b&gt;1&lt;/b&gt;" style="text;strokeColor=none;fillColor=none;align=left;verticalAlign=top;spacingLeft=4;spacingRight=4;overflow=hidden;rotatable=0;points=[[0,0.5],[1,0.5]];portConstraint=eastwest;whiteSpace=wrap;html=1;" parent="1" vertex="1">
          <mxGeometry x="781.5" y="678" width="20" height="26" as="geometry" />
        </mxCell>
        <mxCell id="2b6GmqSEgxPgAT3i0t5q-16" value="&lt;b&gt;1&lt;/b&gt;" style="text;strokeColor=none;fillColor=none;align=left;verticalAlign=top;spacingLeft=4;spacingRight=4;overflow=hidden;rotatable=0;points=[[0,0.5],[1,0.5]];portConstraint=eastwest;whiteSpace=wrap;html=1;" parent="1" vertex="1">
          <mxGeometry x="330" y="684" width="20" height="26" as="geometry" />
        </mxCell>
        <mxCell id="2b6GmqSEgxPgAT3i0t5q-17" value="&lt;b&gt;1...*&lt;/b&gt;" style="text;strokeColor=none;fillColor=none;align=left;verticalAlign=top;spacingLeft=4;spacingRight=4;overflow=hidden;rotatable=0;points=[[0,0.5],[1,0.5]];portConstraint=eastwest;whiteSpace=wrap;html=1;" parent="1" vertex="1">
          <mxGeometry x="53" y="614" width="37" height="26" as="geometry" />
        </mxCell>
        <mxCell id="2b6GmqSEgxPgAT3i0t5q-18" value="&lt;b&gt;TicketStatus&lt;/b&gt;" style="swimlane;fontStyle=0;childLayout=stackLayout;horizontal=1;startSize=26;fillColor=#a20025;horizontalStack=0;resizeParent=1;resizeParentMax=0;resizeLast=0;collapsible=1;marginBottom=0;whiteSpace=wrap;html=1;strokeColor=#6F0000;swimlaneFillColor=default;fontColor=#ffffff;" parent="1" vertex="1">
          <mxGeometry x="480" y="710" width="140" height="78" as="geometry" />
        </mxCell>
        <mxCell id="2b6GmqSEgxPgAT3i0t5q-19" value="- &lt;b&gt;Id&lt;/b&gt;: int" style="text;strokeColor=none;fillColor=none;align=left;verticalAlign=top;spacingLeft=4;spacingRight=4;overflow=hidden;rotatable=0;points=[[0,0.5],[1,0.5]];portConstraint=eastwest;whiteSpace=wrap;html=1;" parent="2b6GmqSEgxPgAT3i0t5q-18" vertex="1">
          <mxGeometry y="26" width="140" height="26" as="geometry" />
        </mxCell>
        <mxCell id="2b6GmqSEgxPgAT3i0t5q-20" value="- &lt;b&gt;Status&lt;/b&gt;: text" style="text;strokeColor=none;fillColor=none;align=left;verticalAlign=top;spacingLeft=4;spacingRight=4;overflow=hidden;rotatable=0;points=[[0,0.5],[1,0.5]];portConstraint=eastwest;whiteSpace=wrap;html=1;" parent="2b6GmqSEgxPgAT3i0t5q-18" vertex="1">
          <mxGeometry y="52" width="140" height="26" as="geometry" />
        </mxCell>
        <mxCell id="mTICrj34jhNMvIbCaC76-47" value="- &lt;b&gt;Status&lt;/b&gt;" style="text;strokeColor=none;fillColor=none;align=left;verticalAlign=top;spacingLeft=4;spacingRight=4;overflow=hidden;rotatable=0;points=[[0,0.5],[1,0.5]];portConstraint=eastwest;whiteSpace=wrap;html=1;" parent="1" vertex="1">
          <mxGeometry x="490" y="678" width="60" height="26" as="geometry" />
        </mxCell>
        <mxCell id="2b6GmqSEgxPgAT3i0t5q-22" value="&lt;b&gt;1&lt;/b&gt;" style="text;strokeColor=none;fillColor=none;align=left;verticalAlign=top;spacingLeft=4;spacingRight=4;overflow=hidden;rotatable=0;points=[[0,0.5],[1,0.5]];portConstraint=eastwest;whiteSpace=wrap;html=1;" parent="1" vertex="1">
          <mxGeometry x="550" y="678" width="20" height="26" as="geometry" />
        </mxCell>
        <mxCell id="2b6GmqSEgxPgAT3i0t5q-23" value="&lt;b&gt;Worklog&lt;/b&gt;" style="swimlane;fontStyle=0;childLayout=stackLayout;horizontal=1;startSize=26;fillColor=#008a00;horizontalStack=0;resizeParent=1;resizeParentMax=0;resizeLast=0;collapsible=1;marginBottom=0;whiteSpace=wrap;html=1;strokeColor=#005700;swimlaneFillColor=default;fontColor=#ffffff;" parent="1" vertex="1">
          <mxGeometry x="861.5" y="377" width="140" height="182" as="geometry" />
        </mxCell>
        <mxCell id="2b6GmqSEgxPgAT3i0t5q-24" value="- &lt;b&gt;Id&lt;/b&gt;: int" style="text;strokeColor=none;fillColor=none;align=left;verticalAlign=top;spacingLeft=4;spacingRight=4;overflow=hidden;rotatable=0;points=[[0,0.5],[1,0.5]];portConstraint=eastwest;whiteSpace=wrap;html=1;" parent="2b6GmqSEgxPgAT3i0t5q-23" vertex="1">
          <mxGeometry y="26" width="140" height="26" as="geometry" />
        </mxCell>
        <mxCell id="2b6GmqSEgxPgAT3i0t5q-25" value="- &lt;b&gt;User&lt;/b&gt;: User" style="text;strokeColor=none;fillColor=none;align=left;verticalAlign=top;spacingLeft=4;spacingRight=4;overflow=hidden;rotatable=0;points=[[0,0.5],[1,0.5]];portConstraint=eastwest;whiteSpace=wrap;html=1;" parent="2b6GmqSEgxPgAT3i0t5q-23" vertex="1">
          <mxGeometry y="52" width="140" height="26" as="geometry" />
        </mxCell>
        <mxCell id="2b6GmqSEgxPgAT3i0t5q-30" value="- &lt;b&gt;Timetaken&lt;/b&gt;: text" style="text;strokeColor=none;fillColor=none;align=left;verticalAlign=top;spacingLeft=4;spacingRight=4;overflow=hidden;rotatable=0;points=[[0,0.5],[1,0.5]];portConstraint=eastwest;whiteSpace=wrap;html=1;" parent="2b6GmqSEgxPgAT3i0t5q-23" vertex="1">
          <mxGeometry y="78" width="140" height="26" as="geometry" />
        </mxCell>
        <mxCell id="2b6GmqSEgxPgAT3i0t5q-31" value="- &lt;b&gt;StartTime&lt;/b&gt;: timestamp" style="text;strokeColor=none;fillColor=none;align=left;verticalAlign=top;spacingLeft=4;spacingRight=4;overflow=hidden;rotatable=0;points=[[0,0.5],[1,0.5]];portConstraint=eastwest;whiteSpace=wrap;html=1;" parent="2b6GmqSEgxPgAT3i0t5q-23" vertex="1">
          <mxGeometry y="104" width="140" height="26" as="geometry" />
        </mxCell>
        <mxCell id="2b6GmqSEgxPgAT3i0t5q-32" value="- &lt;b&gt;EndTime&lt;/b&gt;: timestamp" style="text;strokeColor=none;fillColor=none;align=left;verticalAlign=top;spacingLeft=4;spacingRight=4;overflow=hidden;rotatable=0;points=[[0,0.5],[1,0.5]];portConstraint=eastwest;whiteSpace=wrap;html=1;" parent="2b6GmqSEgxPgAT3i0t5q-23" vertex="1">
          <mxGeometry y="130" width="140" height="26" as="geometry" />
        </mxCell>
        <mxCell id="2b6GmqSEgxPgAT3i0t5q-33" value="- &lt;b&gt;DescriÃ§Ã£o&lt;/b&gt;: text" style="text;strokeColor=none;fillColor=none;align=left;verticalAlign=top;spacingLeft=4;spacingRight=4;overflow=hidden;rotatable=0;points=[[0,0.5],[1,0.5]];portConstraint=eastwest;whiteSpace=wrap;html=1;" parent="2b6GmqSEgxPgAT3i0t5q-23" vertex="1">
          <mxGeometry y="156" width="140" height="26" as="geometry" />
        </mxCell>
        <mxCell id="2b6GmqSEgxPgAT3i0t5q-28" value="- &lt;b&gt;Worklogs&lt;/b&gt;" style="text;strokeColor=none;fillColor=none;align=left;verticalAlign=top;spacingLeft=4;spacingRight=4;overflow=hidden;rotatable=0;points=[[0,0.5],[1,0.5]];portConstraint=eastwest;whiteSpace=wrap;html=1;" parent="1" vertex="1">
          <mxGeometry x="770" y="469" width="80" height="26" as="geometry" />
        </mxCell>
        <mxCell id="2b6GmqSEgxPgAT3i0t5q-29" value="&lt;b&gt;0...*&lt;/b&gt;" style="text;strokeColor=none;fillColor=none;align=left;verticalAlign=top;spacingLeft=4;spacingRight=4;overflow=hidden;rotatable=0;points=[[0,0.5],[1,0.5]];portConstraint=eastwest;whiteSpace=wrap;html=1;" parent="1" vertex="1">
          <mxGeometry x="800" y="440" width="36" height="26" as="geometry" />
        </mxCell>
        <mxCell id="2b6GmqSEgxPgAT3i0t5q-35" value="&lt;b&gt;TicketResolution&lt;/b&gt;" style="swimlane;fontStyle=0;childLayout=stackLayout;horizontal=1;startSize=26;fillColor=#008a00;horizontalStack=0;resizeParent=1;resizeParentMax=0;resizeLast=0;collapsible=1;marginBottom=0;whiteSpace=wrap;html=1;strokeColor=#005700;swimlaneFillColor=default;fontColor=#ffffff;" parent="1" vertex="1">
          <mxGeometry x="840.5" y="160" width="171.5" height="156" as="geometry" />
        </mxCell>
        <mxCell id="2b6GmqSEgxPgAT3i0t5q-36" value="- &lt;b&gt;Id&lt;/b&gt;: int" style="text;strokeColor=none;fillColor=none;align=left;verticalAlign=top;spacingLeft=4;spacingRight=4;overflow=hidden;rotatable=0;points=[[0,0.5],[1,0.5]];portConstraint=eastwest;whiteSpace=wrap;html=1;" parent="2b6GmqSEgxPgAT3i0t5q-35" vertex="1">
          <mxGeometry y="26" width="171.5" height="26" as="geometry" />
        </mxCell>
        <mxCell id="2b6GmqSEgxPgAT3i0t5q-37" value="- &lt;b&gt;Description&lt;/b&gt;: Text" style="text;strokeColor=none;fillColor=none;align=left;verticalAlign=top;spacingLeft=4;spacingRight=4;overflow=hidden;rotatable=0;points=[[0,0.5],[1,0.5]];portConstraint=eastwest;whiteSpace=wrap;html=1;" parent="2b6GmqSEgxPgAT3i0t5q-35" vertex="1">
          <mxGeometry y="52" width="171.5" height="26" as="geometry" />
        </mxCell>
        <mxCell id="2b6GmqSEgxPgAT3i0t5q-92" value="- &lt;b&gt;ResolvedAt&lt;/b&gt;: timestamp" style="text;strokeColor=none;fillColor=none;align=left;verticalAlign=top;spacingLeft=4;spacingRight=4;overflow=hidden;rotatable=0;points=[[0,0.5],[1,0.5]];portConstraint=eastwest;whiteSpace=wrap;html=1;" parent="2b6GmqSEgxPgAT3i0t5q-35" vertex="1">
          <mxGeometry y="78" width="171.5" height="26" as="geometry" />
        </mxCell>
        <mxCell id="2b6GmqSEgxPgAT3i0t5q-77" value="- &lt;b&gt;ResolvedBy&lt;/b&gt;: User" style="text;strokeColor=none;fillColor=none;align=left;verticalAlign=top;spacingLeft=4;spacingRight=4;overflow=hidden;rotatable=0;points=[[0,0.5],[1,0.5]];portConstraint=eastwest;whiteSpace=wrap;html=1;" parent="2b6GmqSEgxPgAT3i0t5q-35" vertex="1">
          <mxGeometry y="104" width="171.5" height="26" as="geometry" />
        </mxCell>
        <mxCell id="2b6GmqSEgxPgAT3i0t5q-95" value="- &lt;b&gt;AttachmentUrl&lt;/b&gt;: Text" style="text;strokeColor=none;fillColor=none;align=left;verticalAlign=top;spacingLeft=4;spacingRight=4;overflow=hidden;rotatable=0;points=[[0,0.5],[1,0.5]];portConstraint=eastwest;whiteSpace=wrap;html=1;" parent="2b6GmqSEgxPgAT3i0t5q-35" vertex="1">
          <mxGeometry y="130" width="171.5" height="26" as="geometry" />
        </mxCell>
        <mxCell id="2b6GmqSEgxPgAT3i0t5q-44" value="- &lt;b&gt;Resolution&lt;/b&gt;" style="text;strokeColor=none;fillColor=none;align=left;verticalAlign=top;spacingLeft=4;spacingRight=4;overflow=hidden;rotatable=0;points=[[0,0.5],[1,0.5]];portConstraint=eastwest;whiteSpace=wrap;html=1;" parent="1" vertex="1">
          <mxGeometry x="750" y="218" width="80" height="26" as="geometry" />
        </mxCell>
        <mxCell id="2b6GmqSEgxPgAT3i0t5q-45" value="&lt;b&gt;1&lt;/b&gt;" style="text;strokeColor=none;fillColor=none;align=left;verticalAlign=top;spacingLeft=4;spacingRight=4;overflow=hidden;rotatable=0;points=[[0,0.5],[1,0.5]];portConstraint=eastwest;whiteSpace=wrap;html=1;" parent="1" vertex="1">
          <mxGeometry x="813.5" y="244" width="20" height="26" as="geometry" />
        </mxCell>
        <mxCell id="2b6GmqSEgxPgAT3i0t5q-48" value="&lt;b&gt;Message&lt;/b&gt;" style="swimlane;fontStyle=0;childLayout=stackLayout;horizontal=1;startSize=26;fillColor=#d80073;horizontalStack=0;resizeParent=1;resizeParentMax=0;resizeLast=0;collapsible=1;marginBottom=0;whiteSpace=wrap;html=1;strokeColor=#A50040;swimlaneFillColor=default;fontColor=#ffffff;" parent="1" vertex="1">
          <mxGeometry x="244" y="38" width="140" height="182" as="geometry" />
        </mxCell>
        <mxCell id="2b6GmqSEgxPgAT3i0t5q-49" value="- &lt;b&gt;Id&lt;/b&gt;: int" style="text;strokeColor=none;fillColor=none;align=left;verticalAlign=top;spacingLeft=4;spacingRight=4;overflow=hidden;rotatable=0;points=[[0,0.5],[1,0.5]];portConstraint=eastwest;whiteSpace=wrap;html=1;" parent="2b6GmqSEgxPgAT3i0t5q-48" vertex="1">
          <mxGeometry y="26" width="140" height="26" as="geometry" />
        </mxCell>
        <mxCell id="2b6GmqSEgxPgAT3i0t5q-50" value="- &lt;b&gt;To&lt;/b&gt;: Text" style="text;strokeColor=none;fillColor=none;align=left;verticalAlign=top;spacingLeft=4;spacingRight=4;overflow=hidden;rotatable=0;points=[[0,0.5],[1,0.5]];portConstraint=eastwest;whiteSpace=wrap;html=1;" parent="2b6GmqSEgxPgAT3i0t5q-48" vertex="1">
          <mxGeometry y="52" width="140" height="26" as="geometry" />
        </mxCell>
        <mxCell id="2b6GmqSEgxPgAT3i0t5q-86" value="- &lt;b&gt;Cc&lt;/b&gt;: Text" style="text;strokeColor=none;fillColor=none;align=left;verticalAlign=top;spacingLeft=4;spacingRight=4;overflow=hidden;rotatable=0;points=[[0,0.5],[1,0.5]];portConstraint=eastwest;whiteSpace=wrap;html=1;" parent="2b6GmqSEgxPgAT3i0t5q-48" vertex="1">
          <mxGeometry y="78" width="140" height="26" as="geometry" />
        </mxCell>
        <mxCell id="2b6GmqSEgxPgAT3i0t5q-87" value="- &lt;b&gt;Subject&lt;/b&gt;: Text" style="text;strokeColor=none;fillColor=none;align=left;verticalAlign=top;spacingLeft=4;spacingRight=4;overflow=hidden;rotatable=0;points=[[0,0.5],[1,0.5]];portConstraint=eastwest;whiteSpace=wrap;html=1;" parent="2b6GmqSEgxPgAT3i0t5q-48" vertex="1">
          <mxGeometry y="104" width="140" height="26" as="geometry" />
        </mxCell>
        <mxCell id="2b6GmqSEgxPgAT3i0t5q-88" value="- &lt;b&gt;Content&lt;/b&gt;: Text" style="text;strokeColor=none;fillColor=none;align=left;verticalAlign=top;spacingLeft=4;spacingRight=4;overflow=hidden;rotatable=0;points=[[0,0.5],[1,0.5]];portConstraint=eastwest;whiteSpace=wrap;html=1;" parent="2b6GmqSEgxPgAT3i0t5q-48" vertex="1">
          <mxGeometry y="130" width="140" height="26" as="geometry" />
        </mxCell>
        <mxCell id="2b6GmqSEgxPgAT3i0t5q-93" value="- &lt;b&gt;SentAt&lt;/b&gt;: timestamp" style="text;strokeColor=none;fillColor=none;align=left;verticalAlign=top;spacingLeft=4;spacingRight=4;overflow=hidden;rotatable=0;points=[[0,0.5],[1,0.5]];portConstraint=eastwest;whiteSpace=wrap;html=1;" parent="2b6GmqSEgxPgAT3i0t5q-48" vertex="1">
          <mxGeometry y="156" width="140" height="26" as="geometry" />
        </mxCell>
        <mxCell id="2b6GmqSEgxPgAT3i0t5q-53" value="" style="endArrow=none;html=1;rounded=0;exitX=1;exitY=0.5;exitDx=0;exitDy=0;entryX=0;entryY=0.5;entryDx=0;entryDy=0;startArrow=block;startFill=1;" parent="1" source="mTICrj34jhNMvIbCaC76-6" target="mTICrj34jhNMvIbCaC76-35" edge="1">
          <mxGeometry width="50" height="50" relative="1" as="geometry">
            <mxPoint x="560" y="400" as="sourcePoint" />
            <mxPoint x="610" y="350" as="targetPoint" />
          </mxGeometry>
        </mxCell>
        <mxCell id="2b6GmqSEgxPgAT3i0t5q-54" value="" style="endArrow=classic;html=1;rounded=0;exitX=1;exitY=0.5;exitDx=0;exitDy=0;entryX=0;entryY=0.5;entryDx=0;entryDy=0;" parent="1" source="mTICrj34jhNMvIbCaC76-25" edge="1">
          <mxGeometry width="50" height="50" relative="1" as="geometry">
            <mxPoint x="560" y="400" as="sourcePoint" />
            <mxPoint x="460.0000000000002" y="428" as="targetPoint" />
          </mxGeometry>
        </mxCell>
        <mxCell id="2b6GmqSEgxPgAT3i0t5q-55" value="" style="endArrow=none;html=1;rounded=0;exitX=1;exitY=0.5;exitDx=0;exitDy=0;entryX=0;entryY=0.5;entryDx=0;entryDy=0;startArrow=block;startFill=1;" parent="1" source="mTICrj34jhNMvIbCaC76-21" edge="1">
          <mxGeometry width="50" height="50" relative="1" as="geometry">
            <mxPoint x="560" y="400" as="sourcePoint" />
            <mxPoint x="460.0000000000002" y="428" as="targetPoint" />
          </mxGeometry>
        </mxCell>
        <mxCell id="2b6GmqSEgxPgAT3i0t5q-56" value="" style="endArrow=none;html=1;rounded=0;exitX=1;exitY=0.5;exitDx=0;exitDy=0;entryX=0;entryY=0.5;entryDx=0;entryDy=0;startFill=1;startArrow=block;" parent="1" source="2b6GmqSEgxPgAT3i0t5q-2" target="mTICrj34jhNMvIbCaC76-50" edge="1">
          <mxGeometry width="50" height="50" relative="1" as="geometry">
            <mxPoint x="560" y="400" as="sourcePoint" />
            <mxPoint x="610" y="350" as="targetPoint" />
          </mxGeometry>
        </mxCell>
        <mxCell id="2b6GmqSEgxPgAT3i0t5q-57" value="" style="endArrow=none;html=1;rounded=0;exitX=0;exitY=0.5;exitDx=0;exitDy=0;entryX=0;entryY=0.5;entryDx=0;entryDy=0;startFill=1;startArrow=block;" parent="1" source="mTICrj34jhNMvIbCaC76-22" target="mTICrj34jhNMvIbCaC76-27" edge="1">
          <mxGeometry width="50" height="50" relative="1" as="geometry">
            <mxPoint x="560" y="400" as="sourcePoint" />
            <mxPoint x="610" y="350" as="targetPoint" />
            <Array as="points">
              <mxPoint x="70" y="350" />
              <mxPoint x="70" y="495" />
            </Array>
          </mxGeometry>
        </mxCell>
        <mxCell id="2b6GmqSEgxPgAT3i0t5q-58" value="" style="endArrow=none;html=1;rounded=0;exitX=0;exitY=0.5;exitDx=0;exitDy=0;entryX=0;entryY=0.5;entryDx=0;entryDy=0;startArrow=block;startFill=1;" parent="1" source="2b6GmqSEgxPgAT3i0t5q-1" target="mTICrj34jhNMvIbCaC76-23" edge="1">
          <mxGeometry width="50" height="50" relative="1" as="geometry">
            <mxPoint x="560" y="400" as="sourcePoint" />
            <mxPoint x="610" y="350" as="targetPoint" />
            <Array as="points">
              <mxPoint x="40" y="639" />
              <mxPoint x="40" y="299" />
            </Array>
          </mxGeometry>
        </mxCell>
        <mxCell id="2b6GmqSEgxPgAT3i0t5q-59" value="" style="endArrow=none;html=1;rounded=0;exitX=0.5;exitY=0;exitDx=0;exitDy=0;entryX=0.162;entryY=0.97;entryDx=0;entryDy=0;entryPerimeter=0;startFill=1;startArrow=block;" parent="1" source="mTICrj34jhNMvIbCaC76-29" target="mTICrj34jhNMvIbCaC76-51" edge="1">
          <mxGeometry width="50" height="50" relative="1" as="geometry">
            <mxPoint x="560" y="400" as="sourcePoint" />
            <mxPoint x="610" y="350" as="targetPoint" />
          </mxGeometry>
        </mxCell>
        <mxCell id="2b6GmqSEgxPgAT3i0t5q-60" value="" style="endArrow=none;html=1;rounded=0;exitX=0.5;exitY=0;exitDx=0;exitDy=0;entryX=0.441;entryY=1.096;entryDx=0;entryDy=0;entryPerimeter=0;startFill=1;startArrow=block;" parent="1" source="2b6GmqSEgxPgAT3i0t5q-18" target="mTICrj34jhNMvIbCaC76-51" edge="1">
          <mxGeometry width="50" height="50" relative="1" as="geometry">
            <mxPoint x="560" y="400" as="sourcePoint" />
            <mxPoint x="610" y="350" as="targetPoint" />
          </mxGeometry>
        </mxCell>
        <mxCell id="2b6GmqSEgxPgAT3i0t5q-61" value="" style="endArrow=none;html=1;rounded=0;exitX=0.5;exitY=0;exitDx=0;exitDy=0;startFill=1;startArrow=block;" parent="1" source="mTICrj34jhNMvIbCaC76-39" edge="1">
          <mxGeometry width="50" height="50" relative="1" as="geometry">
            <mxPoint x="560" y="400" as="sourcePoint" />
            <mxPoint x="620" y="570" as="targetPoint" />
          </mxGeometry>
        </mxCell>
        <mxCell id="2b6GmqSEgxPgAT3i0t5q-62" value="" style="endArrow=classic;html=1;rounded=0;exitX=1;exitY=0.5;exitDx=0;exitDy=0;entryX=0;entryY=0.5;entryDx=0;entryDy=0;" parent="1" source="mTICrj34jhNMvIbCaC76-35" target="2b6GmqSEgxPgAT3i0t5q-37" edge="1">
          <mxGeometry width="50" height="50" relative="1" as="geometry">
            <mxPoint x="560" y="400" as="sourcePoint" />
            <mxPoint x="610" y="350" as="targetPoint" />
          </mxGeometry>
        </mxCell>
        <mxCell id="2b6GmqSEgxPgAT3i0t5q-63" value="" style="endArrow=classic;html=1;rounded=0;exitX=1;exitY=0.5;exitDx=0;exitDy=0;entryX=0;entryY=0.5;entryDx=0;entryDy=0;" parent="1" target="2b6GmqSEgxPgAT3i0t5q-30" edge="1">
          <mxGeometry width="50" height="50" relative="1" as="geometry">
            <mxPoint x="670" y="428" as="sourcePoint" />
            <mxPoint x="610" y="350" as="targetPoint" />
          </mxGeometry>
        </mxCell>
        <mxCell id="2b6GmqSEgxPgAT3i0t5q-66" value="&lt;b&gt;MessageAttachment&lt;/b&gt;" style="swimlane;fontStyle=0;childLayout=stackLayout;horizontal=1;startSize=26;fillColor=#e1d5e7;horizontalStack=0;resizeParent=1;resizeParentMax=0;resizeLast=0;collapsible=1;marginBottom=0;whiteSpace=wrap;html=1;strokeColor=#9673a6;swimlaneFillColor=default;" parent="1" vertex="1">
          <mxGeometry x="244" y="-150" width="166" height="52" as="geometry" />
        </mxCell>
        <mxCell id="2b6GmqSEgxPgAT3i0t5q-72" value="" style="endArrow=none;html=1;rounded=0;exitX=0.5;exitY=0;exitDx=0;exitDy=0;entryX=0.564;entryY=0.959;entryDx=0;entryDy=0;entryPerimeter=0;startFill=1;startArrow=block;" parent="1" source="mTICrj34jhNMvIbCaC76-34" target="2b6GmqSEgxPgAT3i0t5q-82" edge="1">
          <mxGeometry width="50" height="50" relative="1" as="geometry">
            <mxPoint x="630" y="330" as="sourcePoint" />
            <mxPoint x="566" y="190" as="targetPoint" />
          </mxGeometry>
        </mxCell>
        <mxCell id="2b6GmqSEgxPgAT3i0t5q-73" value="- &lt;b&gt;Ticket&lt;/b&gt;" style="text;strokeColor=none;fillColor=none;align=left;verticalAlign=top;spacingLeft=4;spacingRight=4;overflow=hidden;rotatable=0;points=[[0,0.5],[1,0.5]];portConstraint=eastwest;whiteSpace=wrap;html=1;" parent="1" vertex="1">
          <mxGeometry x="450" y="276" width="60" height="26" as="geometry" />
        </mxCell>
        <mxCell id="2b6GmqSEgxPgAT3i0t5q-74" value="&lt;b&gt;1&lt;/b&gt;" style="text;strokeColor=none;fillColor=none;align=left;verticalAlign=top;spacingLeft=4;spacingRight=4;overflow=hidden;rotatable=0;points=[[0,0.5],[1,0.5]];portConstraint=eastwest;whiteSpace=wrap;html=1;" parent="1" vertex="1">
          <mxGeometry x="535" y="272" width="35" height="26" as="geometry" />
        </mxCell>
        <mxCell id="2b6GmqSEgxPgAT3i0t5q-75" value="- &lt;b&gt;Attachments&lt;/b&gt;" style="text;strokeColor=none;fillColor=none;align=left;verticalAlign=top;spacingLeft=4;spacingRight=4;overflow=hidden;rotatable=0;points=[[0,0.5],[1,0.5]];portConstraint=eastwest;whiteSpace=wrap;html=1;" parent="1" vertex="1">
          <mxGeometry x="145" y="-136" width="95" height="26" as="geometry" />
        </mxCell>
        <mxCell id="2b6GmqSEgxPgAT3i0t5q-76" value="&lt;b&gt;0...*&lt;/b&gt;" style="text;strokeColor=none;fillColor=none;align=left;verticalAlign=top;spacingLeft=4;spacingRight=4;overflow=hidden;rotatable=0;points=[[0,0.5],[1,0.5]];portConstraint=eastwest;whiteSpace=wrap;html=1;" parent="1" vertex="1">
          <mxGeometry x="204" y="-110" width="36" height="26" as="geometry" />
        </mxCell>
        <mxCell id="mTICrj34jhNMvIbCaC76-34" value="&lt;b&gt;&lt;font style=&quot;font-size: 17px;&quot;&gt;Ticket&lt;/font&gt;&lt;/b&gt;" style="swimlane;fontStyle=0;childLayout=stackLayout;horizontal=1;startSize=38;fillColor=#a20025;horizontalStack=0;resizeParent=1;resizeParentMax=0;resizeLast=0;collapsible=1;marginBottom=0;whiteSpace=wrap;html=1;strokeColor=#6F0000;fillStyle=solid;swimlaneFillColor=default;fontSize=16;strokeWidth=3;fontColor=#ffffff;" parent="1" vertex="1">
          <mxGeometry x="460" y="360" width="210" height="158" as="geometry" />
        </mxCell>
        <mxCell id="mTICrj34jhNMvIbCaC76-35" value="- &lt;b&gt;Id&lt;/b&gt;: int" style="text;strokeColor=none;fillColor=none;align=left;verticalAlign=top;spacingLeft=4;spacingRight=4;overflow=hidden;rotatable=0;points=[[0,0.5],[1,0.5]];portConstraint=eastwest;whiteSpace=wrap;html=1;fontSize=16;" parent="mTICrj34jhNMvIbCaC76-34" vertex="1">
          <mxGeometry y="38" width="210" height="40" as="geometry" />
        </mxCell>
        <mxCell id="mTICrj34jhNMvIbCaC76-50" value="- &lt;b&gt;CreatedAt&lt;/b&gt;: timestamp" style="text;strokeColor=none;fillColor=none;align=left;verticalAlign=top;spacingLeft=4;spacingRight=4;overflow=hidden;rotatable=0;points=[[0,0.5],[1,0.5]];portConstraint=eastwest;whiteSpace=wrap;html=1;fontSize=16;" parent="mTICrj34jhNMvIbCaC76-34" vertex="1">
          <mxGeometry y="78" width="210" height="40" as="geometry" />
        </mxCell>
        <mxCell id="mTICrj34jhNMvIbCaC76-51" value="- &lt;b&gt;UpdatedAt&lt;/b&gt;: timestamp" style="text;strokeColor=none;fillColor=none;align=left;verticalAlign=top;spacingLeft=4;spacingRight=4;overflow=hidden;rotatable=0;points=[[0,0.5],[1,0.5]];portConstraint=eastwest;whiteSpace=wrap;html=1;fontSize=16;" parent="mTICrj34jhNMvIbCaC76-34" vertex="1">
          <mxGeometry y="118" width="210" height="40" as="geometry" />
        </mxCell>
        <mxCell id="2b6GmqSEgxPgAT3i0t5q-81" value="&lt;b&gt;Conversation&lt;/b&gt;" style="swimlane;fontStyle=0;childLayout=stackLayout;horizontal=1;startSize=26;fillColor=#d80073;horizontalStack=0;resizeParent=1;resizeParentMax=0;resizeLast=0;collapsible=1;marginBottom=0;whiteSpace=wrap;html=1;strokeColor=#A50040;swimlaneFillColor=default;fontColor=#ffffff;" parent="1" vertex="1">
          <mxGeometry x="430" y="220" width="140" height="52" as="geometry" />
        </mxCell>
        <mxCell id="2b6GmqSEgxPgAT3i0t5q-82" value="- &lt;b&gt;Id&lt;/b&gt;: int" style="text;strokeColor=none;fillColor=none;align=left;verticalAlign=top;spacingLeft=4;spacingRight=4;overflow=hidden;rotatable=0;points=[[0,0.5],[1,0.5]];portConstraint=eastwest;whiteSpace=wrap;html=1;" parent="2b6GmqSEgxPgAT3i0t5q-81" vertex="1">
          <mxGeometry y="26" width="140" height="26" as="geometry" />
        </mxCell>
        <mxCell id="2b6GmqSEgxPgAT3i0t5q-83" value="- &lt;b&gt;Messages&lt;/b&gt;" style="text;strokeColor=none;fillColor=none;align=left;verticalAlign=top;spacingLeft=4;spacingRight=4;overflow=hidden;rotatable=0;points=[[0,0.5],[1,0.5]];portConstraint=eastwest;whiteSpace=wrap;html=1;" parent="1" vertex="1">
          <mxGeometry x="380" y="123" width="80" height="26" as="geometry" />
        </mxCell>
        <mxCell id="2b6GmqSEgxPgAT3i0t5q-85" value="&lt;b&gt;1...*&lt;/b&gt;" style="text;strokeColor=none;fillColor=none;align=left;verticalAlign=top;spacingLeft=4;spacingRight=4;overflow=hidden;rotatable=0;points=[[0,0.5],[1,0.5]];portConstraint=eastwest;whiteSpace=wrap;html=1;" parent="1" vertex="1">
          <mxGeometry x="394" y="154" width="36" height="26" as="geometry" />
        </mxCell>
        <mxCell id="2b6GmqSEgxPgAT3i0t5q-90" value="" style="endArrow=classic;html=1;rounded=0;exitX=0;exitY=0.5;exitDx=0;exitDy=0;entryX=0;entryY=0.5;entryDx=0;entryDy=0;" parent="1" source="2b6GmqSEgxPgAT3i0t5q-86" edge="1">
          <mxGeometry width="50" height="50" relative="1" as="geometry">
            <mxPoint x="564" y="230" as="sourcePoint" />
            <mxPoint x="243.99999999999977" y="-111.00000000000023" as="targetPoint" />
            <Array as="points">
              <mxPoint x="194" y="130" />
              <mxPoint x="194" y="-110" />
            </Array>
          </mxGeometry>
        </mxCell>
        <mxCell id="2b6GmqSEgxPgAT3i0t5q-91" value="" style="endArrow=classic;html=1;rounded=0;exitX=0.25;exitY=0;exitDx=0;exitDy=0;entryX=1;entryY=0.5;entryDx=0;entryDy=0;" parent="1" source="2b6GmqSEgxPgAT3i0t5q-81" target="2b6GmqSEgxPgAT3i0t5q-87" edge="1">
          <mxGeometry width="50" height="50" relative="1" as="geometry">
            <mxPoint x="560" y="250" as="sourcePoint" />
            <mxPoint x="610" y="200" as="targetPoint" />
          </mxGeometry>
        </mxCell>
        <mxCell id="9yS9HZogTss12sOMkBKU-4" value="&lt;b&gt;MessageAttachment&lt;/b&gt;" style="swimlane;fontStyle=0;childLayout=stackLayout;horizontal=1;startSize=26;fillColor=#d80073;horizontalStack=0;resizeParent=1;resizeParentMax=0;resizeLast=0;collapsible=1;marginBottom=0;whiteSpace=wrap;html=1;strokeColor=#A50040;swimlaneFillColor=default;fontColor=#ffffff;" vertex="1" parent="1">
          <mxGeometry x="504" y="-201" width="166" height="156" as="geometry" />
        </mxCell>
        <mxCell id="9yS9HZogTss12sOMkBKU-5" value="- &lt;b&gt;Id&lt;/b&gt;: int" style="text;strokeColor=none;fillColor=none;align=left;verticalAlign=top;spacingLeft=4;spacingRight=4;overflow=hidden;rotatable=0;points=[[0,0.5],[1,0.5]];portConstraint=eastwest;whiteSpace=wrap;html=1;" vertex="1" parent="9yS9HZogTss12sOMkBKU-4">
          <mxGeometry y="26" width="166" height="26" as="geometry" />
        </mxCell>
        <mxCell id="9yS9HZogTss12sOMkBKU-6" value="- &lt;b&gt;FileName&lt;/b&gt;: text" style="text;strokeColor=none;fillColor=none;align=left;verticalAlign=top;spacingLeft=4;spacingRight=4;overflow=hidden;rotatable=0;points=[[0,0.5],[1,0.5]];portConstraint=eastwest;whiteSpace=wrap;html=1;" vertex="1" parent="9yS9HZogTss12sOMkBKU-4">
          <mxGeometry y="52" width="166" height="26" as="geometry" />
        </mxCell>
        <mxCell id="9yS9HZogTss12sOMkBKU-7" value="- &lt;b&gt;FileType&lt;/b&gt;: text" style="text;strokeColor=none;fillColor=none;align=left;verticalAlign=top;spacingLeft=4;spacingRight=4;overflow=hidden;rotatable=0;points=[[0,0.5],[1,0.5]];portConstraint=eastwest;whiteSpace=wrap;html=1;" vertex="1" parent="9yS9HZogTss12sOMkBKU-4">
          <mxGeometry y="78" width="166" height="26" as="geometry" />
        </mxCell>
        <mxCell id="9yS9HZogTss12sOMkBKU-8" value="- &lt;b&gt;FileLocation&lt;/b&gt;: text" style="text;strokeColor=none;fillColor=none;align=left;verticalAlign=top;spacingLeft=4;spacingRight=4;overflow=hidden;rotatable=0;points=[[0,0.5],[1,0.5]];portConstraint=eastwest;whiteSpace=wrap;html=1;" vertex="1" parent="9yS9HZogTss12sOMkBKU-4">
          <mxGeometry y="104" width="166" height="26" as="geometry" />
        </mxCell>
        <mxCell id="9yS9HZogTss12sOMkBKU-9" value="- &lt;b&gt;UploadedAt&lt;/b&gt;: timestamp" style="text;strokeColor=none;fillColor=none;align=left;verticalAlign=top;spacingLeft=4;spacingRight=4;overflow=hidden;rotatable=0;points=[[0,0.5],[1,0.5]];portConstraint=eastwest;whiteSpace=wrap;html=1;" vertex="1" parent="9yS9HZogTss12sOMkBKU-4">
          <mxGeometry y="130" width="166" height="26" as="geometry" />
        </mxCell>
        <mxCell id="9yS9HZogTss12sOMkBKU-10" value="" style="endArrow=classic;html=1;rounded=0;exitX=0;exitY=0.5;exitDx=0;exitDy=0;entryX=1;entryY=0.75;entryDx=0;entryDy=0;" edge="1" parent="1" source="9yS9HZogTss12sOMkBKU-7" target="2b6GmqSEgxPgAT3i0t5q-66">
          <mxGeometry width="50" height="50" relative="1" as="geometry">
            <mxPoint x="430" y="70" as="sourcePoint" />
            <mxPoint x="480" y="20" as="targetPoint" />
          </mxGeometry>
        </mxCell>
        <mxCell id="9yS9HZogTss12sOMkBKU-11" value="&lt;b&gt;ResolutionAttachment&lt;/b&gt;" style="swimlane;fontStyle=0;childLayout=stackLayout;horizontal=1;startSize=26;fillColor=#e1d5e7;horizontalStack=0;resizeParent=1;resizeParentMax=0;resizeLast=0;collapsible=1;marginBottom=0;whiteSpace=wrap;html=1;strokeColor=#9673a6;swimlaneFillColor=default;" vertex="1" parent="1">
          <mxGeometry x="843.25" y="-40" width="166" height="52" as="geometry" />
        </mxCell>
        <mxCell id="9yS9HZogTss12sOMkBKU-12" value="" style="endArrow=none;html=1;rounded=0;exitX=0.5;exitY=0;exitDx=0;exitDy=0;entryX=1;entryY=0.5;entryDx=0;entryDy=0;startFill=1;startArrow=block;" edge="1" parent="1" source="9yS9HZogTss12sOMkBKU-11" target="9yS9HZogTss12sOMkBKU-7">
          <mxGeometry width="50" height="50" relative="1" as="geometry">
            <mxPoint x="430" y="70" as="sourcePoint" />
            <mxPoint x="480" y="20" as="targetPoint" />
          </mxGeometry>
        </mxCell>
        <mxCell id="9yS9HZogTss12sOMkBKU-13" value="" style="endArrow=classic;html=1;rounded=0;exitX=0.449;exitY=-0.013;exitDx=0;exitDy=0;exitPerimeter=0;entryX=0.5;entryY=1;entryDx=0;entryDy=0;" edge="1" parent="1" source="2b6GmqSEgxPgAT3i0t5q-35" target="9yS9HZogTss12sOMkBKU-11">
          <mxGeometry width="50" height="50" relative="1" as="geometry">
            <mxPoint x="430" y="70" as="sourcePoint" />
            <mxPoint x="480" y="20" as="targetPoint" />
          </mxGeometry>
        </mxCell>
        <mxCell id="9yS9HZogTss12sOMkBKU-14" value="&lt;b&gt;TicketAttachment&lt;/b&gt;" style="swimlane;fontStyle=0;childLayout=stackLayout;horizontal=1;startSize=26;fillColor=#e1d5e7;horizontalStack=0;resizeParent=1;resizeParentMax=0;resizeLast=0;collapsible=1;marginBottom=0;whiteSpace=wrap;html=1;strokeColor=#9673a6;swimlaneFillColor=default;" vertex="1" parent="1">
          <mxGeometry x="504" y="60" width="166" height="52" as="geometry" />
        </mxCell>
        <mxCell id="9yS9HZogTss12sOMkBKU-15" value="" style="endArrow=classic;html=1;rounded=0;exitX=0.484;exitY=1.097;exitDx=0;exitDy=0;exitPerimeter=0;entryX=0.5;entryY=0;entryDx=0;entryDy=0;" edge="1" parent="1" source="9yS9HZogTss12sOMkBKU-9" target="9yS9HZogTss12sOMkBKU-14">
          <mxGeometry width="50" height="50" relative="1" as="geometry">
            <mxPoint x="430" y="70" as="sourcePoint" />
            <mxPoint x="480" y="20" as="targetPoint" />
          </mxGeometry>
        </mxCell>
        <mxCell id="9yS9HZogTss12sOMkBKU-16" value="" style="endArrow=classic;html=1;rounded=0;exitX=0.75;exitY=0;exitDx=0;exitDy=0;entryX=0.5;entryY=1;entryDx=0;entryDy=0;" edge="1" parent="1" source="mTICrj34jhNMvIbCaC76-34" target="9yS9HZogTss12sOMkBKU-14">
          <mxGeometry width="50" height="50" relative="1" as="geometry">
            <mxPoint x="430" y="70" as="sourcePoint" />
            <mxPoint x="480" y="20" as="targetPoint" />
          </mxGeometry>
        </mxCell>
        <mxCell id="9yS9HZogTss12sOMkBKU-18" value="- &lt;b&gt;Attachments&lt;/b&gt;" style="text;strokeColor=none;fillColor=none;align=left;verticalAlign=top;spacingLeft=4;spacingRight=4;overflow=hidden;rotatable=0;points=[[0,0.5],[1,0.5]];portConstraint=eastwest;whiteSpace=wrap;html=1;" vertex="1" parent="1">
          <mxGeometry x="490" y="-40" width="95" height="26" as="geometry" />
        </mxCell>
        <mxCell id="9yS9HZogTss12sOMkBKU-19" value="&lt;b&gt;0...*&lt;/b&gt;" style="text;strokeColor=none;fillColor=none;align=left;verticalAlign=top;spacingLeft=4;spacingRight=4;overflow=hidden;rotatable=0;points=[[0,0.5],[1,0.5]];portConstraint=eastwest;whiteSpace=wrap;html=1;" vertex="1" parent="1">
          <mxGeometry x="590" y="-40" width="36" height="26" as="geometry" />
        </mxCell>
        <mxCell id="9yS9HZogTss12sOMkBKU-20" value="- &lt;b&gt;Attachments&lt;/b&gt;" style="text;strokeColor=none;fillColor=none;align=left;verticalAlign=top;spacingLeft=4;spacingRight=4;overflow=hidden;rotatable=0;points=[[0,0.5],[1,0.5]];portConstraint=eastwest;whiteSpace=wrap;html=1;" vertex="1" parent="1">
          <mxGeometry x="830" y="22" width="95" height="26" as="geometry" />
        </mxCell>
        <mxCell id="9yS9HZogTss12sOMkBKU-21" value="&lt;b&gt;0...*&lt;/b&gt;" style="text;strokeColor=none;fillColor=none;align=left;verticalAlign=top;spacingLeft=4;spacingRight=4;overflow=hidden;rotatable=0;points=[[0,0.5],[1,0.5]];portConstraint=eastwest;whiteSpace=wrap;html=1;" vertex="1" parent="1">
          <mxGeometry x="940" y="22" width="36" height="26" as="geometry" />
        </mxCell>
        <mxCell id="9yS9HZogTss12sOMkBKU-22" value="" style="endArrow=classic;html=1;rounded=0;exitX=0;exitY=0;exitDx=0;exitDy=0;entryX=0.759;entryY=1.132;entryDx=0;entryDy=0;entryPerimeter=0;" edge="1" parent="1" source="mTICrj34jhNMvIbCaC76-34" target="2b6GmqSEgxPgAT3i0t5q-93">
          <mxGeometry width="50" height="50" relative="1" as="geometry">
            <mxPoint x="410" y="390" as="sourcePoint" />
            <mxPoint x="460" y="340" as="targetPoint" />
          </mxGeometry>
        </mxCell>
      </root>
    </mxGraphModel>
  </diagram>
</mxfile>
